{"title":"Lies.and.Illusions.2009.DVDRiP.XViD.OPTIONAL.NORDIC-Zen_Bud","uid":5871475,"size":753622368,"categoryP":"video","categoryS":"movies","magnet":"?xt=urn:btih:8e8aa734723b39aefb76e8bb69ae2369a6629b4f&amp;dn=Lies.and.Illusions.2009.DVDRiP.XViD.OPTIONAL.NORDIC-Zen_Bud&amp;tr=udp%3A%2F%2Ftracker.openbittorrent.com%3A80&amp;tr=udp%3A%2F%2Fopen.demonii.com%3A1337&amp;tr=udp%3A%2F%2Ftracker.coppersurfer.tk%3A6969&amp;tr=udp%3A%2F%2Fexodus.desync.com%3A6969","seeders":1,"leechers":0,"uploader":"Zen_Bud","files":-1,"time":1286468949,"description":"\n****** Lies.and.Illusions.2009.DVDRiP.XViD.OPTIONAL.NORDIC-Zen_Bud ******\n\nFormat                           : AVI\nFile size                        : 706 MiB\nDuration                         : 1h 28mn\nOverall bit rate                 : 1 111 Kbps\n\nVideo\n\nFormat                           : MPEG-4 Visual\nCodec ID/Hint                    : XviD\nDuration                         : 1h 28mn\nBit rate                         : 970 Kbps\nWidth                            : 720 pixels\nHeight                           : 552 pixels\nDisplay aspect ratio             : 1.855\nStream size                      : 616 MiB (87%)\nWriting library                  : XviD 1.1.2 (UTC 2006-11-01)\n\nAudio\n\nFormat                           : MPEG Audio\nCodec ID/Hint                    : MP3\nDuration                         : 1h 28mn\nBit rate                         : 128 Kbps\nChannel(s)                       : 2 channels\nSampling rate                    : 48.0 KHz\nStream size                      : 81.3 MiB (12%)\nLanguage                         : English\n\nText #1\nLanguage                         : Danish\n\nText #2\nLanguage                         : Swedish\n\nText #3\nLanguage                         : Norwegian\n\nText #4\nLanguage                         : Finnish\n\n","torrent":{"xt":"urn:btih:8e8aa734723b39aefb76e8bb69ae2369a6629b4f","amp;dn":"Lies.and.Illusions.2009.DVDRiP.XViD.OPTIONAL.NORDIC-Zen_Bud","amp;tr":["udp%3A%2F%2Ftracker.openbittorrent.com%3A80","udp%3A%2F%2Fopen.demonii.com%3A1337","udp%3A%2F%2Ftracker.coppersurfer.tk%3A6969","udp%3A%2F%2Fexodus.desync.com%3A6969"],"infoHash":"8e8aa734723b39aefb76e8bb69ae2369a6629b4f","infoHashBuffer":{"type":"Buffer","data":[142,138,167,52,114,59,57,174,251,118,232,187,105,174,35,105,166,98,155,79]},"announce":[],"urlList":[]}}